# xmcd
# 
# Track frame offsets:
#     150
#     20037
#     43193
#     61482
#     71442
#     84340
#     116173
#     131517
#     148804
#     159428
#     186626
#     211328
#     240617
# 
# Disc length: 3410
# 
# Revision: 2
# Processed by: cddbd v1.5.2PL0 Copyright (c) Steve Scherf et al.
# Submitted via: fre:ac v1.0.27
# 
DISCID=c30d500d
DTITLE=Ian Siegal - Swagger
DYEAR=2007
DGENRE=Blues
TTITLE0=Swagger
TTITLE1=Groundhog Blues
TTITLE2=Catch
TTITLE3=Horse Dream (Western)
TTITLE4=Stranger Than A Green Dog
TTITLE5=Mortal Coil Shuffle
TTITLE6=High Horse
TTITLE7=God Don't Like Ugly
TTITLE8=I Can't Believe You Wanna Leave
TTITLE9=Horse Dream (Swamp)
TTITLE10=I Don't Know What You Got (But It's Got Me)
TTITLE11=Curses
TTITLE12=Let My Love
EXTD=
EXTT0=
EXTT1=
EXTT2=
EXTT3=
EXTT4=
EXTT5=
EXTT6=
EXTT7=
EXTT8=
EXTT9=
EXTT10=
EXTT11=
EXTT12=
PLAYORDER=
